<?xml version="1.0" encoding="UTF-8"?><svg id="Layer_1" xmlns="http://www.w3.org/2000/svg" viewBox="0 0 334.11 267.21"><defs><style>.cls-1{fill:#c83636;}.cls-2{fill:#fff;font-family:Sligoil-Micro, Sligoil;font-size:46px;}</style></defs><path class="cls-1" d="M150.05,0l28.09,28.69L211.7,.52l12.43,35.51,43.35-17.3-4.9,37.53,47.29-4.09-21.58,34.48,44.83,9.67-35.34,26.78,36.32,22.13-44.33,15.45,22.91,31.6-47.33,2.04,6.4,36.8-43.94-11.64-10.97,37.03-34.61-23.75-26.86,32.26-20.61-32.66-39.13,23.13-3.83-37.15-46.1,10.88,13.47-36.63-46.86-2.84,28.95-31.16L0,142.41l40.52-21.48-30.13-27.33,46.62-8.9-14.91-34.79,46.42,4.88,2.32-37.55,39.95,18L150.05,0Z"/><text class="cls-2" transform="translate(64.06 173.02) rotate(-29)"><tspan x="0" y="0">Featured</tspan><tspan x="13.04" y="45">Article</tspan></text></svg>