<svg width="381" height="317" viewBox="0 0 381 317" fill="none" xmlns="http://www.w3.org/2000/svg">
<path d="M171.368 23.7088L200.145 53.1054L234.531 24.2413L247.268 60.6205L291.682 42.8962L286.658 81.3447L335.1 77.1539L312.994 112.479L358.923 122.388L322.72 149.819L359.932 172.489L314.522 188.321L337.992 220.691L289.508 222.786L296.066 260.483L251.055 248.558L239.815 286.492L204.357 262.158L176.838 295.205L155.721 261.748L115.639 285.445L111.715 247.383L64.4834 258.531L78.2832 221.005L30.2805 218.096L59.9398 186.175L17.6494 169.603L59.1625 147.597L28.296 119.6L76.0563 110.482L60.7824 74.8412L108.34 79.8414L110.721 41.3705L151.653 59.8144L171.368 23.7088Z" fill="#C83636"/>
<path d="M87.1446 180.165L91.2308 179.072L88.6786 169.537L87.2517 165.297L99.1015 162.125L98.2508 158.947L86.401 162.119L85.5189 157.733L84.7289 154.782L83.302 150.542L98.7839 146.397L97.9332 143.219L78.6375 148.384L87.1446 180.165ZM122.889 171.084C127.883 169.747 130.208 166.254 129.615 160.769L125.438 161.887C125.877 164.981 124.974 166.877 121.977 167.679C118.436 168.627 116.469 166.915 115.301 163.822L113.254 160.721L128.736 156.577L127.825 153.171C126.318 147.542 121.849 144.116 116.083 145.659C110.272 147.215 107.273 152.737 109.522 161.136C111.77 169.535 117.077 172.64 122.889 171.084ZM112.464 157.77L112.688 154.061C112.816 151.448 114.3 149.542 116.934 148.837C120.021 148.011 121.712 149.602 122.722 151.375L124.768 154.476L112.464 157.77ZM144.573 165.28C148.25 164.295 150.802 160.012 150.725 156.091L152.087 155.727C153.497 160.993 154.712 162.079 158.617 161.034L157.705 157.629C155.39 158.249 154.56 157.692 153.903 155.241L151.351 145.706C149.738 139.862 146.03 137.643 140.9 139.016C135.77 140.389 133.336 144.203 134.916 150.106L139.002 149.012C138.321 146.469 138.028 143.191 141.751 142.194C143.975 141.599 146.05 142.26 147.265 146.8L149.754 153.189L148.709 153.468C146.167 151.424 142.824 150.567 140.282 151.248C136.74 152.196 134.215 155.305 135.491 160.072C136.488 163.795 140.26 166.434 144.573 165.28ZM139.487 159.002C138.709 156.097 139.761 154.209 142.076 153.59C143.529 153.201 145.836 153.459 148.344 154.831C148.255 159.039 145.841 161.291 143.661 161.875C141.618 162.421 140.167 161.545 139.487 159.002ZM175.243 153.421C173.439 153.952 171.568 153.14 170.535 149.281L168.238 140.7L166.689 136.005L177.858 133.016L177.007 129.838L165.838 132.827L164.835 127.987L164.166 125.49L160.08 126.584L160.749 129.081L162.297 133.775L157.03 135.185L157.881 138.363L163.148 136.953L164.151 141.793L166.448 150.374C167.858 155.641 172.25 157.871 176.155 156.826C180.059 155.781 182.841 151.63 181.431 146.364L177.345 147.458C178.378 151.317 177.071 152.98 175.243 153.421ZM197.152 151.546C200.92 150.537 203.18 147.889 202.902 142.125L204.264 141.76C205.673 147.027 206.888 148.113 210.793 147.067L209.882 143.662C207.566 144.282 206.736 143.726 206.08 141.274L201.279 123.341L197.193 124.434L200.499 136.784C202.176 143.049 200.285 147.253 197.061 148.116C194.428 148.821 192.722 146.991 191.868 143.619L187.432 127.047L183.346 128.141L187.782 144.713C189.191 149.979 192.567 152.773 197.152 151.546ZM216.905 145.432L220.991 144.338L217.685 131.989C216.032 125.814 218.438 121.715 221.662 120.853C224.477 120.099 226.126 122.625 227.426 127.483L227.767 128.755L231.807 127.673C231.743 127.252 231.634 126.844 231.513 126.39C229.75 119.806 226.61 116.073 221.571 117.422C217.802 118.431 215.004 120.883 215.282 126.647L213.92 127.012L213.52 120.064L207.845 121.583L208.696 124.761L211.465 124.02L211.477 124.065L212.481 128.905L216.905 145.432ZM251.06 136.776C256.054 135.439 258.379 131.946 257.786 126.46L253.609 127.579C254.048 130.672 253.145 132.568 250.148 133.37C246.607 134.318 244.64 132.607 243.472 129.514L241.425 126.412L256.907 122.268L255.996 118.863C254.489 113.233 250.02 109.807 244.254 111.351C238.442 112.906 235.444 118.428 237.693 126.828C239.941 135.227 245.248 138.331 251.06 136.776ZM240.635 123.461L240.859 119.752C240.987 117.139 242.471 115.234 245.105 114.529C248.192 113.702 249.883 115.293 250.893 117.066L252.939 120.168L240.635 123.461ZM274.963 130.718C278.731 129.709 280.99 127.061 280.712 121.297L282.074 120.932L282.474 127.88L285.652 127.029L276.295 92.07L272.209 93.1638L273.825 99.2022L279.036 109.582L277.674 109.946C275.047 104.859 271.023 104.185 268.072 104.975C263.486 106.203 260.73 111.173 263.075 119.936C265.652 129.561 269.923 132.067 274.963 130.718ZM267.162 118.842C265.135 111.454 267.073 108.697 269.707 107.992C272.839 107.153 276.547 109.372 278.285 115.865C280.023 122.357 278.004 126.449 274.872 127.288C272.057 128.041 269.127 126.003 267.162 118.842ZM99.4931 224.479L117.654 219.618L116.742 216.213L109.433 218.17L108.478 213.511L104.248 197.712L102.7 193.017L102.688 192.972L109.997 191.015L109.147 187.837L90.986 192.698L91.8367 195.876L99.1463 193.92L99.1585 193.965L100.162 198.805L104.391 214.605L105.891 219.118L98.5816 221.074L99.4931 224.479ZM134.465 215.605C139.732 214.195 142.974 210.311 141.771 205.816C140.701 201.82 137.182 200.67 132.19 200.742L129.522 200.774C126.81 200.819 124.79 199.998 124.352 198.363C123.659 195.775 126.013 194.026 128.374 193.394C131.053 192.677 134.266 193.228 135.129 197.182L139.306 196.063C137.993 190.43 132.381 188.916 127.569 190.204C123.21 191.371 119.278 194.856 120.542 199.578C121.417 202.847 123.889 204.812 128.984 204.762L131.652 204.729C134.945 204.675 137.186 205.048 137.733 207.091C138.389 209.543 136.732 211.349 133.554 212.2C130.739 212.953 127.475 212.756 127.005 209.184L122.919 210.278C123.221 215.403 129.063 217.051 134.465 215.605ZM160.099 208.743C165.366 207.333 168.608 203.449 167.405 198.954C166.335 194.959 162.816 193.809 157.824 193.88L155.157 193.913C152.444 193.958 150.424 193.136 149.986 191.502C149.294 188.914 151.647 187.165 154.008 186.533C156.687 185.816 159.9 186.367 160.763 190.32L164.94 189.202C163.627 183.569 158.016 182.054 153.203 183.342C148.844 184.509 144.912 187.994 146.176 192.716C147.051 195.985 149.523 197.951 154.618 197.901L157.286 197.868C160.58 197.813 162.82 198.186 163.367 200.23C164.023 202.681 162.366 204.487 159.188 205.338C156.373 206.091 153.109 205.895 152.64 202.323L148.553 203.416C148.855 208.542 154.697 210.189 160.099 208.743ZM183.412 202.843C187.181 201.835 189.44 199.186 189.162 193.422L190.524 193.058C191.934 198.324 193.149 199.41 197.053 198.365L196.142 194.96C193.826 195.579 192.996 195.023 192.34 192.571L187.54 174.638L183.453 175.732L186.759 188.081C188.436 194.346 186.545 198.55 183.321 199.413C180.688 200.118 178.982 198.288 178.128 194.916L173.692 178.344L169.606 179.438L174.042 196.01C175.452 201.276 178.827 204.071 183.412 202.843ZM211.686 194.935C216.68 193.598 219.005 190.105 218.412 184.619L214.235 185.737C214.674 188.831 213.771 190.727 210.774 191.529C207.233 192.477 205.266 190.766 204.098 187.673L202.051 184.571L217.533 180.427L216.622 177.022C215.115 171.392 210.646 167.966 204.88 169.51C199.069 171.065 196.07 176.587 198.319 184.987C200.567 193.386 205.874 196.49 211.686 194.935ZM201.261 181.62L201.485 177.911C201.613 175.298 203.097 173.393 205.731 172.688C208.818 171.861 210.509 173.452 211.519 175.225L213.565 178.327L201.261 181.62Z" fill="white"/>
</svg>
