<svg width="343" height="273" viewBox="0 0 343 273" fill="none" xmlns="http://www.w3.org/2000/svg">
<path d="M154.368 0.70881L183.145 30.1054L217.531 1.24133L230.268 37.6205L274.682 19.8962L269.658 58.3447L318.1 54.1539L295.994 89.4792L341.923 99.3879L305.72 126.819L342.932 149.489L297.522 165.321L320.992 197.691L272.508 199.786L279.066 237.483L234.055 225.558L222.815 263.492L187.357 239.158L159.838 272.205L138.721 238.748L98.6388 262.445L94.7154 224.383L47.4834 235.531L61.2832 198.005L13.2805 195.096L42.9398 163.175L0.649444 146.603L42.1625 124.597L11.296 96.6004L59.0563 87.4816L43.7824 51.8412L91.3397 56.8414L93.7211 18.3705L134.653 36.8144L154.368 0.70881Z" fill="#C83636"/>
</svg>
